<svg width="160" height="100" viewBox="0 0 160 100" fill="none" xmlns="http://www.w3.org/2000/svg">
<rect width="160" height="100" rx="8" fill="#006FCF"/>
<path fill-rule="evenodd" clip-rule="evenodd" d="M152 2H8C4.68629 2 2 4.68629 2 8V92C2 95.3137 4.68629 98 8 98H152C155.314 98 158 95.3137 158 92V8C158 4.68629 155.314 2 152 2ZM8 0C3.58172 0 0 3.58172 0 8V92C0 96.4183 3.58172 100 8 100H152C156.418 100 160 96.4183 160 92V8C160 3.58172 156.418 0 152 0H8Z" fill="#DDDDD8"/>
<path d="M36.4518 42.7453L39.7776 50.8062H33.1518L36.4518 42.7453ZM105.524 43.0805H92.7323V46.634H105.318V51.9578H92.7581V55.9195H105.55V59.0949L114.474 49.4484L105.55 39.3937L105.524 43.0805ZM45.0971 33.0258H62.2631L66.0745 41.3402L69.6065 33H114.165L118.797 38.1133L123.588 33H144.054L128.933 49.5516L143.899 66H123.128L118.496 60.8867L113.662 66H41.0022L38.8796 60.8867H34.0241L31.8971 66H15.0921L29.2116 33H43.9499L45.0971 33.0258ZM82.321 37.6578H72.7003L66.2549 52.8516L59.2725 37.6578H49.7249V58.3258L40.8733 37.6578H32.3096L22.0745 61.3422H28.7561L30.8788 56.2289H42.0335L44.1561 61.3422H55.8436V44.434L63.3674 61.368H68.4807L75.9573 44.4855V61.3723H82.2221L82.3252 37.6535L82.321 37.6578ZM122.454 49.5516L133.329 37.6578H125.5L118.621 45.0742L111.969 37.6578H86.6436V61.368H111.608L118.544 53.9L125.195 61.368H133.252L122.454 49.5516Z" fill="white"/>
</svg>
